<svg xmlns="http://www.w3.org/2000/svg" x="0px" y="0px"
width="12" height="12"
viewBox="0 0 172 172"
style=" fill:#000000;"><g fill="none" fill-rule="nonzero" stroke="none" stroke-width="1" stroke-linecap="butt" stroke-linejoin="miter" stroke-miterlimit="10" stroke-dasharray="" stroke-dashoffset="0" font-family="none" font-weight="none" font-size="none" text-anchor="none" style="mix-blend-mode: normal"><path d="M0,172v-172h172v172z" fill="none"></path><g><path d="M69.875,139.75c-16.7915,0 -30.45833,-13.66683 -30.45833,-30.45833v-73.45833h-12.54167c-10.87183,0 -19.70833,8.8365 -19.70833,19.70833v96.75c0,10.87183 8.8365,19.70833 19.70833,19.70833h89.58333c10.87183,0 19.70833,-8.8365 19.70833,-19.70833v-12.54167z" fill="#fafafa"></path><path d="M164.83333,19.70833c0,-10.88617 -8.82217,-19.70833 -19.70833,-19.70833h-75.25c-10.88617,0 -19.70833,8.82217 -19.70833,19.70833v89.58333c0,10.88617 8.82217,19.70833 19.70833,19.70833h75.25c10.88617,0 19.70833,-8.82217 19.70833,-19.70833z" fill="#ffffff"></path></g></g></svg>