<svg width="95" height="91" viewBox="0 0 95 91" fill="none" xmlns="http://www.w3.org/2000/svg">
<g filter="url(#filter0_d_2_5)">
<path d="M29.214 20.214C29.358 20.214 29.502 20.244 29.646 20.304C29.79 20.352 29.928 20.442 30.06 20.574L32.472 23.112C31.416 24.492 30.09 25.536 28.494 26.244C26.91 26.94 25.032 27.288 22.86 27.288C20.868 27.288 19.08 26.952 17.496 26.28C15.924 25.596 14.586 24.66 13.482 23.472C12.39 22.272 11.55 20.856 10.962 19.224C10.374 17.58 10.08 15.798 10.08 13.878C10.08 11.922 10.398 10.128 11.034 8.496C11.67 6.852 12.564 5.436 13.716 4.248C14.868 3.06 16.248 2.136 17.856 1.476C19.464 0.815999 21.234 0.485999 23.166 0.485999C24.15 0.485999 25.074 0.575999 25.938 0.755999C26.814 0.923998 27.63 1.164 28.386 1.476C29.142 1.776 29.838 2.142 30.474 2.574C31.11 3.006 31.674 3.474 32.166 3.978L30.114 6.732C29.982 6.9 29.826 7.056 29.646 7.2C29.466 7.332 29.214 7.398 28.89 7.398C28.674 7.398 28.47 7.35 28.278 7.254C28.086 7.158 27.882 7.044 27.666 6.912C27.45 6.768 27.21 6.618 26.946 6.462C26.694 6.294 26.388 6.144 26.028 6.012C25.68 5.868 25.266 5.748 24.786 5.652C24.318 5.556 23.766 5.508 23.13 5.508C22.122 5.508 21.198 5.694 20.358 6.066C19.53 6.438 18.81 6.984 18.198 7.704C17.598 8.412 17.13 9.288 16.794 10.332C16.47 11.364 16.308 12.546 16.308 13.878C16.308 15.222 16.488 16.416 16.848 17.46C17.22 18.504 17.718 19.386 18.342 20.106C18.978 20.814 19.716 21.354 20.556 21.726C21.396 22.098 22.296 22.284 23.256 22.284C23.808 22.284 24.312 22.26 24.768 22.212C25.224 22.152 25.65 22.062 26.046 21.942C26.442 21.81 26.814 21.642 27.162 21.438C27.51 21.222 27.864 20.952 28.224 20.628C28.368 20.508 28.524 20.412 28.692 20.34C28.86 20.256 29.034 20.214 29.214 20.214ZM62.0702 13.878C62.0702 15.774 61.7402 17.538 61.0802 19.17C60.4322 20.802 59.5142 22.224 58.3262 23.436C57.1382 24.636 55.7042 25.578 54.0242 26.262C52.3562 26.946 50.5022 27.288 48.4622 27.288C46.4222 27.288 44.5622 26.946 42.8822 26.262C41.2022 25.578 39.7622 24.636 38.5622 23.436C37.3742 22.224 36.4502 20.802 35.7902 19.17C35.1422 17.538 34.8182 15.774 34.8182 13.878C34.8182 11.982 35.1422 10.218 35.7902 8.586C36.4502 6.954 37.3742 5.538 38.5622 4.338C39.7622 3.138 41.2022 2.196 42.8822 1.512C44.5622 0.827999 46.4222 0.485999 48.4622 0.485999C50.5022 0.485999 52.3562 0.833999 54.0242 1.53C55.7042 2.214 57.1382 3.156 58.3262 4.356C59.5142 5.556 60.4322 6.972 61.0802 8.604C61.7402 10.236 62.0702 11.994 62.0702 13.878ZM55.8422 13.878C55.8422 12.582 55.6742 11.418 55.3382 10.386C55.0022 9.342 54.5162 8.46 53.8802 7.74C53.2562 7.02 52.4882 6.468 51.5762 6.084C50.6642 5.7 49.6262 5.508 48.4622 5.508C47.2862 5.508 46.2362 5.7 45.3122 6.084C44.4002 6.468 43.6262 7.02 42.9902 7.74C42.3662 8.46 41.8862 9.342 41.5502 10.386C41.2142 11.418 41.0462 12.582 41.0462 13.878C41.0462 15.186 41.2142 16.362 41.5502 17.406C41.8862 18.438 42.3662 19.314 42.9902 20.034C43.6262 20.754 44.4002 21.306 45.3122 21.69C46.2362 22.062 47.2862 22.248 48.4622 22.248C49.6262 22.248 50.6642 22.062 51.5762 21.69C52.4882 21.306 53.2562 20.754 53.8802 20.034C54.5162 19.314 55.0022 18.438 55.3382 17.406C55.6742 16.362 55.8422 15.186 55.8422 13.878ZM83.2545 22.14V27H67.4505V0.774H73.5345V22.14H83.2545ZM37.278 56.878C37.278 58.774 36.948 60.538 36.288 62.17C35.64 63.802 34.722 65.224 33.534 66.436C32.346 67.636 30.912 68.578 29.232 69.262C27.564 69.946 25.71 70.288 23.67 70.288C21.63 70.288 19.77 69.946 18.09 69.262C16.41 68.578 14.97 67.636 13.77 66.436C12.582 65.224 11.658 63.802 10.998 62.17C10.35 60.538 10.026 58.774 10.026 56.878C10.026 54.982 10.35 53.218 10.998 51.586C11.658 49.954 12.582 48.538 13.77 47.338C14.97 46.138 16.41 45.196 18.09 44.512C19.77 43.828 21.63 43.486 23.67 43.486C25.71 43.486 27.564 43.834 29.232 44.53C30.912 45.214 32.346 46.156 33.534 47.356C34.722 48.556 35.64 49.972 36.288 51.604C36.948 53.236 37.278 54.994 37.278 56.878ZM31.05 56.878C31.05 55.582 30.882 54.418 30.546 53.386C30.21 52.342 29.724 51.46 29.088 50.74C28.464 50.02 27.696 49.468 26.784 49.084C25.872 48.7 24.834 48.508 23.67 48.508C22.494 48.508 21.444 48.7 20.52 49.084C19.608 49.468 18.834 50.02 18.198 50.74C17.574 51.46 17.094 52.342 16.758 53.386C16.422 54.418 16.254 55.582 16.254 56.878C16.254 58.186 16.422 59.362 16.758 60.406C17.094 61.438 17.574 62.314 18.198 63.034C18.834 63.754 19.608 64.306 20.52 64.69C21.444 65.062 22.494 65.248 23.67 65.248C24.834 65.248 25.872 65.062 26.784 64.69C27.696 64.306 28.464 63.754 29.088 63.034C29.724 62.314 30.21 61.438 30.546 60.406C30.882 59.362 31.05 58.186 31.05 56.878ZM51.1903 56.104C52.0183 56.104 52.7203 56.002 53.2963 55.798C53.8843 55.582 54.3643 55.288 54.7363 54.916C55.1083 54.544 55.3783 54.112 55.5463 53.62C55.7143 53.116 55.7983 52.576 55.7983 52C55.7983 50.848 55.4203 49.948 54.6643 49.3C53.9203 48.652 52.7623 48.328 51.1903 48.328H48.7423V56.104H51.1903ZM64.1143 70H58.6063C57.5863 70 56.8543 69.616 56.4103 68.848L52.0543 61.234C51.8503 60.91 51.6223 60.676 51.3703 60.532C51.1183 60.376 50.7583 60.298 50.2903 60.298H48.7423V70H42.6583V43.774H51.1903C53.0863 43.774 54.7003 43.972 56.0323 44.368C57.3763 44.752 58.4683 45.292 59.3083 45.988C60.1603 46.684 60.7783 47.506 61.1623 48.454C61.5463 49.402 61.7383 50.434 61.7383 51.55C61.7383 52.402 61.6243 53.206 61.3963 53.962C61.1683 54.718 60.8323 55.42 60.3883 56.068C59.9443 56.704 59.3923 57.274 58.7323 57.778C58.0843 58.282 57.3343 58.696 56.4823 59.02C56.8783 59.224 57.2503 59.482 57.5983 59.794C57.9463 60.094 58.2583 60.454 58.5343 60.874L64.1143 70ZM82.6085 49.102C82.4285 49.39 82.2365 49.606 82.0325 49.75C81.8405 49.894 81.5885 49.966 81.2765 49.966C81.0005 49.966 80.7005 49.882 80.3765 49.714C80.0645 49.534 79.7045 49.336 79.2965 49.12C78.9005 48.904 78.4445 48.712 77.9285 48.544C77.4125 48.364 76.8245 48.274 76.1645 48.274C75.0245 48.274 74.1725 48.52 73.6085 49.012C73.0565 49.492 72.7805 50.146 72.7805 50.974C72.7805 51.502 72.9485 51.94 73.2845 52.288C73.6205 52.636 74.0585 52.936 74.5985 53.188C75.1505 53.44 75.7745 53.674 76.4705 53.89C77.1785 54.094 77.8985 54.328 78.6305 54.592C79.3625 54.844 80.0765 55.144 80.7725 55.492C81.4805 55.84 82.1045 56.284 82.6445 56.824C83.1965 57.364 83.6405 58.024 83.9765 58.804C84.3125 59.572 84.4805 60.502 84.4805 61.594C84.4805 62.806 84.2705 63.94 83.8505 64.996C83.4305 66.052 82.8185 66.976 82.0145 67.768C81.2225 68.548 80.2385 69.166 79.0625 69.622C77.8985 70.066 76.5725 70.288 75.0845 70.288C74.2685 70.288 73.4345 70.204 72.5825 70.036C71.7425 69.868 70.9265 69.634 70.1345 69.334C69.3425 69.022 68.5985 68.656 67.9025 68.236C67.2065 67.816 66.6005 67.348 66.0845 66.832L67.8845 63.988C68.0285 63.784 68.2145 63.616 68.4425 63.484C68.6825 63.34 68.9405 63.268 69.2165 63.268C69.5765 63.268 69.9365 63.382 70.2965 63.61C70.6685 63.838 71.0825 64.09 71.5385 64.366C72.0065 64.642 72.5405 64.894 73.1405 65.122C73.7405 65.35 74.4485 65.464 75.2645 65.464C76.3685 65.464 77.2265 65.224 77.8385 64.744C78.4505 64.252 78.7565 63.478 78.7565 62.422C78.7565 61.81 78.5885 61.312 78.2525 60.928C77.9165 60.544 77.4725 60.226 76.9205 59.974C76.3805 59.722 75.7625 59.5 75.0665 59.308C74.3705 59.116 73.6565 58.906 72.9245 58.678C72.1925 58.438 71.4785 58.15 70.7825 57.814C70.0865 57.466 69.4625 57.016 68.9105 56.464C68.3705 55.9 67.9325 55.204 67.5965 54.376C67.2605 53.536 67.0925 52.504 67.0925 51.28C67.0925 50.296 67.2905 49.336 67.6865 48.4C68.0825 47.464 68.6645 46.63 69.4325 45.898C70.2005 45.166 71.1425 44.584 72.2585 44.152C73.3745 43.708 74.6525 43.486 76.0925 43.486C76.8965 43.486 77.6765 43.552 78.4325 43.684C79.2005 43.804 79.9265 43.99 80.6105 44.242C81.2945 44.482 81.9305 44.776 82.5185 45.124C83.1185 45.46 83.6525 45.844 84.1205 46.276L82.6085 49.102Z" fill="white" fill-opacity="0.75" shape-rendering="crispEdges"/>
</g>
<defs>
<filter id="filter0_d_2_5" x="0.026001" y="0.485992" width="94.4545" height="89.802" filterUnits="userSpaceOnUse" color-interpolation-filters="sRGB">
<feFlood flood-opacity="0" result="BackgroundImageFix"/>
<feColorMatrix in="SourceAlpha" type="matrix" values="0 0 0 0 0 0 0 0 0 0 0 0 0 0 0 0 0 0 127 0" result="hardAlpha"/>
<feOffset dy="10"/>
<feGaussianBlur stdDeviation="5"/>
<feComposite in2="hardAlpha" operator="out"/>
<feColorMatrix type="matrix" values="0 0 0 0 0.979167 0 0 0 0 0.975087 0 0 0 0 0.975087 0 0 0 0.65 0"/>
<feBlend mode="normal" in2="BackgroundImageFix" result="effect1_dropShadow_2_5"/>
<feBlend mode="normal" in="SourceGraphic" in2="effect1_dropShadow_2_5" result="shape"/>
</filter>
</defs>
</svg>
